<svg xmlns="http://www.w3.org/2000/svg" id="Capa_1" data-name="Capa 1" viewBox="0 0 979.2 612">
  <defs>
    <clipPath id="clip-path">
      <path d="M552.76 306.7a49.4 49.4 0 0092 24.3 1.06 1.06 0 00-.92-1.59h-15.63a1.07 1.07 0 00-.76.31 34.66 34.66 0 119.46-31.72h-21.76v-11.84a1.07 1.07 0 00-1.06-1.06h-13.64a1.06 1.06 0 00-1.06 1.06V298h-11.84a1.05 1.05 0 00-1.06 1.06v13.64a1.05 1.05 0 001.06 1.06h11.84v11.84a1.06 1.06 0 001.06 1.06h13.64a1.07 1.07 0 001.06-1.06v-11.84H650a1.07 1.07 0 001.06-.91 49.4 49.4 0 10-98.32-6.15" class="cls-1"/>
    </clipPath>
    <clipPath id="clip-path-2">
      <path d="M0 0h979.2v612H0z" class="cls-1"/>
    </clipPath>
    <linearGradient id="Degradado_sin_nombre_2" x2="1" y1="612" y2="612" gradientTransform="matrix(96.67 0 0 -96.67 562.12 59468.13)" gradientUnits="userSpaceOnUse">
      <stop offset="0" stop-color="#00d99e"/>
      <stop offset="1" stop-color="#00ffb8"/>
    </linearGradient>
    <style>
      .cls-1{fill:none}.cls-5{fill:#fff}
    </style>
  </defs>
  <path d="M0 0h979.2v612H0z" class="cls-1"/>
  <g clip-path="url(#clip-path)">
    <path fill="url(#Degradado_sin_nombre_2)" d="M536.25 240.34h131.42v131.51H536.25z" transform="rotate(-65.25 601.964 306.104)"/>
  </g>
  <g clip-path="url(#clip-path-2)">
    <path d="M436.45 354.3h13.42a1.17 1.17 0 001.17-1.17v-62.35a.21.21 0 01.41-.08l26.79 62.77a1.17 1.17 0 001.08.71h14.48a1.17 1.17 0 001.08-.73L521.71 288a.21.21 0 01.41.08v64.9a1.17 1.17 0 001.16 1.17h13.42a1.17 1.17 0 001.17-1.17v-95a1.17 1.17 0 00-1.17-1.17h-18.45a1.16 1.16 0 00-1.08.72l-30.51 74.35a.1.1 0 01-.19 0l-31.64-74.35a1.17 1.17 0 00-1.08-.72h-17.3a1.18 1.18 0 00-1.17 1.17v95.23a1.17 1.17 0 001.17 1.17M243.76 256.72a1.06 1.06 0 011.06 1.07v56.85q0 13 5.74 19.35t16.11 6.36q10.21 0 16-6.36t5.74-19.35v-56.85a1.07 1.07 0 011.07-1.07h13.62a1.07 1.07 0 011.07 1.07v56.85q0 20.06-10.37 30.35t-27.37 10.29q-16.87 0-27.1-10.29t-10.23-30.35v-56.85a1.07 1.07 0 011.07-1.07zM419.34 354.3h-13.63a1.07 1.07 0 01-1.07-1.06v-95.46a1.06 1.06 0 011.07-1.06h13.63a1.05 1.05 0 011.06 1.06v95.46a1.06 1.06 0 01-1.06 1.06M744.12 331.15a41.49 41.49 0 01-17.55 17.07Q715 354.29 699 354.3h-31.55a1.07 1.07 0 01-1.07-1.07v-95.44a1.07 1.07 0 011.07-1.07H699q16 0 27.57 6a41.24 41.24 0 0117.55 16.93q6 10.92 6 25.71t-6 25.78m-19.41-.21q9.39-9.12 9.39-25.57t-9.39-25.57q-9.4-9.12-27-9.12h-15.18a.4.4 0 00-.4.4v68.59a.4.4 0 00.4.4h15.22q17.55 0 27-9.13M379.35 303.25a26.33 26.33 0 008.34-19.25v-.84a26.43 26.43 0 00-26.43-26.43h-41.19a1.07 1.07 0 00-1.07 1.07v95.93a1.07 1.07 0 001.07 1.07h42.71c15.06 0 27.31-12.65 27.31-28.2v-.92a28.51 28.51 0 00-10.74-22.4m-18.09-33.51a13.43 13.43 0 0113.43 13.43v.8a13.43 13.43 0 01-13.43 13.43h-25.35a1.07 1.07 0 01-1.07-1.07v-25.55a1.07 1.07 0 011.07-1.07zm15.83 56.83c0 8.38-6.42 15.2-14.31 15.2h-26.87a1.07 1.07 0 01-1.07-1.07v-29.21a1.07 1.07 0 011.07-1.08h26.87c7.89 0 14.31 6.82 14.31 15.21z" class="cls-5"/>
  </g>
</svg>
